<?xml version="1.0" standalone="no"?>
<!DOCTYPE svg PUBLIC "-//W3C//DTD SVG 20010904//EN"
 "http://www.w3.org/TR/2001/REC-SVG-20010904/DTD/svg10.dtd">
<svg version="1.0" xmlns="http://www.w3.org/2000/svg"
 width="256.000000pt" height="256.000000pt" viewBox="0 0 256.000000 256.000000"
 preserveAspectRatio="xMidYMid meet">
<metadata>
Created by potrace 1.11, written by Peter Selinger 2001-2013
</metadata>
<g transform="translate(0.000000,256.000000) scale(0.100000,-0.100000)"
fill="#000000" stroke="none">
<path d="M1240 2515 c-9 -11 -13 -65 -13 -185 l-1 -170 -300 0 c-166 0 -306
-4 -313 -8 -6 -4 -16 -19 -20 -32 -5 -14 -8 -242 -8 -508 1 -441 3 -484 19
-500 14 -15 42 -17 209 -19 106 0 194 -2 197 -2 4 -1 5 -196 1 -292 l-1 -25
-355 0 c-315 0 -357 -2 -372 -17 -14 -14 -16 -55 -16 -357 -1 -304 1 -342 16
-357 15 -15 96 -17 997 -17 897 0 982 1 997 16 14 15 16 55 17 358 0 305 -2
342 -17 357 -15 15 -54 17 -374 17 l-357 1 0 140 c-1 77 0 149 2 160 3 19 11
20 194 19 163 0 193 2 211 16 20 17 20 26 21 496 1 263 -2 492 -6 508 -4 16
-13 33 -20 38 -7 4 -148 8 -314 8 l-301 0 0 170 c0 122 -4 174 -13 185 -16 19
-64 19 -80 0z m625 -886 l0 -424 -586 -3 -586 -2 1 425 c0 367 2 425 15 427 8
2 271 3 585 2 l571 0 0 -425z m-442 -538 c15 -1 17 -16 17 -159 l0 -158 -160
1 -160 0 0 157 c0 155 0 157 23 160 18 2 222 2 280 -1z m758 -430 c4 0 6 -119
5 -263 l-1 -263 -106 -1 -105 -1 -1 171 c0 164 -1 170 -23 188 -15 12 -30 16
-44 12 -39 -12 -38 -8 -38 -232 0 -72 -3 -133 -7 -133 -3 -1 -267 -3 -587 -4
l-581 -1 1 165 c1 158 0 167 -21 189 -27 27 -34 27 -63 4 -21 -17 -22 -25 -24
-187 l-1 -170 -106 -1 -105 -1 1 266 c1 146 3 266 3 266 4 2 1798 -2 1803 -4z"/>
<path d="M962 1930 c-38 -24 -52 -49 -52 -96 0 -29 7 -43 34 -69 32 -30 53
-35 108 -26 3 0 20 15 37 32 85 85 -24 221 -127 159z"/>
<path d="M1504 1935 c-34 -14 -64 -54 -64 -85 0 -43 29 -90 63 -105 106 -44
196 80 120 165 -32 35 -74 44 -119 25z"/>
<path d="M818 1608 c-15 -15 -18 -36 -18 -140 0 -68 4 -129 8 -136 5 -7 22
-16 38 -20 22 -6 805 -8 871 -3 6 1 19 8 27 17 22 21 23 250 2 280 -14 18 -31
19 -462 20 -419 0 -449 -1 -466 -18z m835 -115 c0 -13 -1 -36 -2 -51 l-1 -28
-372 0 -371 1 0 40 c1 22 1 46 2 53 1 10 79 12 373 10 l372 -3 -1 -22z"/>
</g>
</svg>
